<svg xmlns="http://www.w3.org/2000/svg" viewBox="0 0 64 64">
  <defs>
    <linearGradient id="g" x1="0" y1="0" x2="1" y2="1">
      <stop offset="0" stop-color="#ff2b2b"/>
      <stop offset="1" stop-color="#ff5252"/>
    </linearGradient>
  </defs>
  <rect width="64" height="64" rx="12" ry="12" fill="#0d0d10"/>
  <g transform="translate(8,6)">
    <path d="M34 6v26.5c0 3.6-2.9 6.5-6.5 6.5-2.8 0-5.1-1.8-6-4.3-.6-1.9-2.6-3.1-4.6-2.7-1.8.4-3.4 1.7-4 3.6-1.6 4.9 2.3 9.6 7.2 9.6 2.9 0 5.4-1.5 6.8-3.8.6-1 1.7-1.6 2.9-1.6 3.9 0 7-3.1 7-7V14.5l8-2V6l-11.8 3.2C34 9.2 34 6 34 6z" fill="url(#g)"/>
  </g>
</svg>

